<svg width="50" height="50" viewBox="0 0 50 50" fill="none" xmlns="http://www.w3.org/2000/svg">
<g clip-path="url(#clip0_2334_122203)">
<path d="M47.6123 4.75781H45.2373V2.38281H42.8623V-0.0078125H9.51856V19.0547H2.37793V21.4297H14.2842V19.0547H11.9092V2.38281H38.0967V11.8984H47.6123V35.7109H45.2373V40.4766H47.6123V47.6172H50.0029V7.14844H47.6123V4.75781Z" fill="#010101"/>
<path d="M47.6123 47.6172H11.9092V49.9922H47.6123V47.6172Z" fill="#010101"/>
<path d="M45.2373 30.9453H42.8623V35.7109H45.2373V30.9453Z" fill="#010101"/>
<path d="M42.8623 26.1953H40.4717V30.9453H42.8623V26.1953Z" fill="#010101"/>
<path d="M40.4717 23.8047H16.6748V26.1953H40.4717V23.8047Z" fill="#010101"/>
<path d="M33.3311 11.8984H30.9561V14.2891H33.3311V11.8984Z" fill="#010101"/>
<path d="M30.9561 16.6641H23.8154V19.0547H30.9561V16.6641Z" fill="#010101"/>
<path d="M23.8154 11.8984H21.4248V14.2891H23.8154V11.8984Z" fill="#010101"/>
<path d="M16.6748 21.4297H14.2842V23.8047H16.6748V21.4297Z" fill="#010101"/>
<path d="M11.9092 42.8516H9.51855V47.6172H11.9092V42.8516Z" fill="#010101"/>
<path d="M9.51855 38.1016H7.14355V42.8516H9.51855V38.1016Z" fill="#010101"/>
<path d="M7.14355 33.3359H4.76855V38.1016H7.14355V33.3359Z" fill="#010101"/>
<path d="M4.76855 28.5703H2.37793V33.3359H4.76855V28.5703Z" fill="#010101"/>
<path d="M2.37793 21.4297H0.00292969V28.5703H2.37793V21.4297Z" fill="#010101"/>
</g>
<defs>
<clipPath id="clip0_2334_122203">
<rect width="50" height="50" fill="white"/>
</clipPath>
</defs>
</svg>
