<svg width="20" height="20" viewBox="0 0 20 20" fill="none" xmlns="http://www.w3.org/2000/svg">
<g clip-path="url(#clip0_263_4837)">
<path d="M20 7.61865H19.05V12.3812H20V7.61865Z" fill="#000001"/>
<path d="M19.05 12.3813H18.0938V14.2876H19.05V12.3813Z" fill="#000001"/>
<path d="M19.05 5.7124H18.0938V7.61865H19.05V5.7124Z" fill="#000001"/>
<path d="M18.0937 14.2876H17.1437V16.1876H18.0937V14.2876Z" fill="#000001"/>
<path d="M18.0937 3.80615H17.1437V5.7124H18.0937V3.80615Z" fill="#000001"/>
<path d="M17.1438 16.1875H16.1875V17.1438H17.1438V16.1875Z" fill="#000001"/>
<path d="M17.1438 2.85645H16.1875V3.80645H17.1438V2.85645Z" fill="#000001"/>
<path d="M16.1875 17.1436H14.2875V18.0936H16.1875V17.1436Z" fill="#000001"/>
<path d="M16.1875 1.90625H14.2875V2.85625H16.1875V1.90625Z" fill="#000001"/>
<path d="M14.2875 18.0938H12.3812V19.05H14.2875V18.0938Z" fill="#000001"/>
<path d="M13.3313 14.2876H12.3813V9.5251H11.4313V8.56885H8.56875V9.5251H7.61875V16.1876H8.56875V17.1438H13.3313V16.1876H14.2875V15.2376H13.3313V14.2876Z" fill="#000001"/>
<path d="M14.2875 0.950195H12.3812V1.90645H14.2875V0.950195Z" fill="#000001"/>
<path d="M12.3813 19.0498H7.61875V19.9998H12.3813V19.0498Z" fill="#000001"/>
<path d="M8.56875 7.61895H11.4313V6.66895H12.3813V3.80645H11.4313V2.85645H8.56875V3.80645H7.61875V6.66895H8.56875V7.61895Z" fill="#000001"/>
<path d="M12.3813 0H7.61875V0.95H12.3813V0Z" fill="#000001"/>
<path d="M7.61875 18.0938H5.7125V19.05H7.61875V18.0938Z" fill="#000001"/>
<path d="M7.61875 0.950195H5.7125V1.90645H7.61875V0.950195Z" fill="#000001"/>
<path d="M5.7125 17.1436H3.80625V18.0936H5.7125V17.1436Z" fill="#000001"/>
<path d="M5.7125 1.90625H3.80625V2.85625H5.7125V1.90625Z" fill="#000001"/>
<path d="M3.80625 16.1875H2.85625V17.1438H3.80625V16.1875Z" fill="#000001"/>
<path d="M3.80625 2.85645H2.85625V3.80645H3.80625V2.85645Z" fill="#000001"/>
<path d="M2.85625 14.2876H1.90625V16.1876H2.85625V14.2876Z" fill="#000001"/>
<path d="M2.85625 3.80615H1.90625V5.7124H2.85625V3.80615Z" fill="#000001"/>
<path d="M1.90625 12.3813H0.950001V14.2876H1.90625V12.3813Z" fill="#000001"/>
<path d="M1.90625 5.7124H0.950001V7.61865H1.90625V5.7124Z" fill="#000001"/>
<path d="M0.95 7.61865H0V12.3812H0.95V7.61865Z" fill="#000001"/>
</g>
<defs>
<clipPath id="clip0_263_4837">
<rect width="20" height="20" fill="white"/>
</clipPath>
</defs>
</svg>
