<svg width="106" height="106" viewBox="0 0 106 106" fill="none" xmlns="http://www.w3.org/2000/svg">
<rect x="44.9902" y="15.3379" width="15.0337" height="15.2885" fill="currentColor"/>
<rect x="14.7793" width="15.2885" height="15.2885" fill="#currentColor"/>
<rect x="30.3223" y="45.332" width="15.0337" height="15.0337" fill="currentColor"/>
<rect x="44.9902" y="30.334" width="15.3376" height="15.3376" fill="currentColor"/>
<rect x="30.0674" width="15.2885" height="15.2885" fill="currentColor"/>
<rect y="15.2891" width="15.0337" height="15.0337" fill="currentColor"/>
<rect x="44.9902" y="44.9904" width="15.2885" height="15.2885" fill="currentColor"/>
<rect x="60.3281" y="59.9863" width="15.3376" height="15.3376" fill="currentColor"/>
<rect x="60.3281" y="74.6582" width="15.2885" height="15.2885" fill="currentColor"/>
<rect x="30.334" y="89.9805" width="15.2885" height="15.2885" fill="currentColor"/>
<rect x="75.4229" y="45.1016" width="15.2885" height="15.2885" fill="currentColor"/>
<rect x="90.7119" y="30.3223" width="15.2885" height="15.2885" fill="currentColor"/>
<rect x="90.7109" y="45.1016" width="15.2885" height="15.2885" fill="currentColor"/>
<rect x="75.4229" y="60.1348" width="15.2885" height="15.2885" fill="currentColor"/>
<rect x="30.3223" y="75.4238" width="15.2885" height="15.2885" fill="currentColor"/>
<rect x="14.2695" y="15.2891" width="15.0337" height="15.0337" fill="currentColor"/>
<rect x="74.6582" width="15.2885" height="15.2885" fill="currentColor"/>
<rect y="45.3555" width="15.0337" height="15.0337" fill="currentColor"/>
<rect x="59.6465" y="15.3379" width="15.2885" height="15.0337" fill="currentColor"/>
<rect x="14.3154" y="29.9941" width="15.0337" height="15.2885" fill="currentColor"/>
</svg>
